<svg width="32" height="32" viewBox="0 0 32 32" fill="none" xmlns="http://www.w3.org/2000/svg">
<path fill-rule="evenodd" clip-rule="evenodd" d="M11.5982 14.2014C11.643 14.3089 11.7312 14.3918 11.8398 14.4286L16.267 15.9295C16.3225 15.9483 16.3805 15.9542 16.4369 15.9475C16.4905 15.9412 16.5427 15.9235 16.59 15.8949L20.4324 13.5712C20.5352 13.509 20.6037 13.4019 20.6183 13.2805C20.6328 13.159 20.5919 13.0368 20.5071 12.9486L15.2645 7.50052C15.175 7.40752 15.0476 7.36365 14.9221 7.38308C14.7968 7.40245 14.6893 7.48253 14.6335 7.59799L11.6064 13.8689C11.5564 13.9726 11.5533 14.0939 11.5982 14.2014Z" fill="url(#paint0_linear_304_66)"/>
<path fill-rule="evenodd" clip-rule="evenodd" d="M16.6806 17.1072C16.6601 16.9565 16.5578 16.8294 16.4165 16.7792L4.74338 12.6282C4.58149 12.5706 4.40302 12.6258 4.30199 12.7648C4.20103 12.9037 4.20071 13.0945 4.30123 13.2366L10.079 21.4056C10.1663 21.5291 10.3092 21.5884 10.4473 21.572C10.5066 21.565 10.565 21.544 10.6177 21.5081L16.5131 17.4901C16.6362 17.4062 16.701 17.2579 16.6806 17.1072Z" fill="#7375FD"/>
<path fill-rule="evenodd" clip-rule="evenodd" d="M27.7259 9.88525C27.5936 9.77228 27.4059 9.75874 27.2623 9.85179L10.2908 20.8405C10.1372 20.94 10.0728 21.135 10.1356 21.3112C10.1983 21.4875 10.3715 21.597 10.5532 21.5764L23.7514 20.0781L23.7532 20.0778C23.8939 20.0612 24.014 19.9697 24.0671 19.8362L27.8404 10.3457C27.9045 10.1845 27.8581 9.99819 27.7259 9.88525Z" fill="url(#paint1_linear_304_66)"/>
<defs>
<linearGradient id="paint0_linear_304_66" x1="15.2916" y1="7.33909" x2="16.3125" y2="15.9622" gradientUnits="userSpaceOnUse">
<stop stop-color="#7375FD"/>
<stop offset="1" stop-color="#1E22FB"/>
</linearGradient>
<linearGradient id="paint1_linear_304_66" x1="18.3767" y1="10.8648" x2="19.5274" y2="20.5784" gradientUnits="userSpaceOnUse">
<stop stop-color="#1E22FB"/>
<stop offset="1" stop-color="#7375FD"/>
</linearGradient>
</defs>
</svg>
